<?xml version="1.0" encoding="utf-8" standalone="no"?>
<!DOCTYPE svg PUBLIC "-//W3C//DTD SVG 1.1//EN"
  "http://www.w3.org/Graphics/SVG/1.1/DTD/svg11.dtd">
<svg xmlns:xlink="http://www.w3.org/1999/xlink" width="460.8pt" height="345.6pt" viewBox="0 0 460.8 345.6" xmlns="http://www.w3.org/2000/svg" version="1.1">
 <metadata>
  <rdf:RDF xmlns:dc="http://purl.org/dc/elements/1.1/" xmlns:cc="http://creativecommons.org/ns#" xmlns:rdf="http://www.w3.org/1999/02/22-rdf-syntax-ns#">
   <cc:Work>
    <dc:type rdf:resource="http://purl.org/dc/dcmitype/StillImage"/>
    <dc:date>2025-01-06T11:01:04.771150</dc:date>
    <dc:format>image/svg+xml</dc:format>
    <dc:creator>
     <cc:Agent>
      <dc:title>Matplotlib v3.7.3, https://matplotlib.org/</dc:title>
     </cc:Agent>
    </dc:creator>
   </cc:Work>
  </rdf:RDF>
 </metadata>
 <defs>
  <style type="text/css">*{stroke-linejoin: round; stroke-linecap: butt}</style>
 </defs>
 <g id="figure_1">
  <g id="patch_1">
   <path d="M 0 345.6 
L 460.8 345.6 
L 460.8 0 
L 0 0 
z
" style="fill: #ffffff"/>
  </g>
  <g id="axes_1">
   <g id="patch_2">
    <path d="M 57.6 307.584 
L 414.72 307.584 
L 414.72 41.472 
L 57.6 41.472 
z
" style="fill: #ffffff"/>
   </g>
   <g id="matplotlib.axis_1">
    <g id="xtick_1">
     <g id="line2d_1">
      <path d="M 74.024914 307.584 
L 74.024914 41.472 
" clip-path="url(#p0cc08b8426)" style="fill: none; stroke: #b0b0b0; stroke-width: 0.8; stroke-linecap: square"/>
     </g>
     <g id="line2d_2">
      <defs>
       <path id="m6763387c74" d="M 0 0 
L 0 3.5 
" style="stroke: #000000; stroke-width: 0.8"/>
      </defs>
      <g>
       <use xlink:href="#m6763387c74" x="74.024914" y="307.584" style="stroke: #000000; stroke-width: 0.8"/>
      </g>
     </g>
     <g id="text_1">
      <!-- −6 -->
      <g transform="translate(63.705383 325.221812) scale(0.14 -0.14)">
       <defs>
        <path id="DejaVuSans-2212" d="M 678 2272 
L 4684 2272 
L 4684 1741 
L 678 1741 
L 678 2272 
z
" transform="scale(0.015625)"/>
        <path id="DejaVuSans-36" d="M 2113 2584 
Q 1688 2584 1439 2293 
Q 1191 2003 1191 1497 
Q 1191 994 1439 701 
Q 1688 409 2113 409 
Q 2538 409 2786 701 
Q 3034 994 3034 1497 
Q 3034 2003 2786 2293 
Q 2538 2584 2113 2584 
z
M 3366 4563 
L 3366 3988 
Q 3128 4100 2886 4159 
Q 2644 4219 2406 4219 
Q 1781 4219 1451 3797 
Q 1122 3375 1075 2522 
Q 1259 2794 1537 2939 
Q 1816 3084 2150 3084 
Q 2853 3084 3261 2657 
Q 3669 2231 3669 1497 
Q 3669 778 3244 343 
Q 2819 -91 2113 -91 
Q 1303 -91 875 529 
Q 447 1150 447 2328 
Q 447 3434 972 4092 
Q 1497 4750 2381 4750 
Q 2619 4750 2861 4703 
Q 3103 4656 3366 4563 
z
" transform="scale(0.015625)"/>
       </defs>
       <use xlink:href="#DejaVuSans-2212"/>
       <use xlink:href="#DejaVuSans-36" x="83.789062"/>
      </g>
     </g>
    </g>
    <g id="xtick_2">
     <g id="line2d_3">
      <path d="M 159.441214 307.584 
L 159.441214 41.472 
" clip-path="url(#p0cc08b8426)" style="fill: none; stroke: #b0b0b0; stroke-width: 0.8; stroke-linecap: square"/>
     </g>
     <g id="line2d_4">
      <g>
       <use xlink:href="#m6763387c74" x="159.441214" y="307.584" style="stroke: #000000; stroke-width: 0.8"/>
      </g>
     </g>
     <g id="text_2">
      <!-- −4 -->
      <g transform="translate(149.121683 325.221812) scale(0.14 -0.14)">
       <defs>
        <path id="DejaVuSans-34" d="M 2419 4116 
L 825 1625 
L 2419 1625 
L 2419 4116 
z
M 2253 4666 
L 3047 4666 
L 3047 1625 
L 3713 1625 
L 3713 1100 
L 3047 1100 
L 3047 0 
L 2419 0 
L 2419 1100 
L 313 1100 
L 313 1709 
L 2253 4666 
z
" transform="scale(0.015625)"/>
       </defs>
       <use xlink:href="#DejaVuSans-2212"/>
       <use xlink:href="#DejaVuSans-34" x="83.789062"/>
      </g>
     </g>
    </g>
    <g id="xtick_3">
     <g id="line2d_5">
      <path d="M 244.857515 307.584 
L 244.857515 41.472 
" clip-path="url(#p0cc08b8426)" style="fill: none; stroke: #b0b0b0; stroke-width: 0.8; stroke-linecap: square"/>
     </g>
     <g id="line2d_6">
      <g>
       <use xlink:href="#m6763387c74" x="244.857515" y="307.584" style="stroke: #000000; stroke-width: 0.8"/>
      </g>
     </g>
     <g id="text_3">
      <!-- −2 -->
      <g transform="translate(234.537984 325.221812) scale(0.14 -0.14)">
       <defs>
        <path id="DejaVuSans-32" d="M 1228 531 
L 3431 531 
L 3431 0 
L 469 0 
L 469 531 
Q 828 903 1448 1529 
Q 2069 2156 2228 2338 
Q 2531 2678 2651 2914 
Q 2772 3150 2772 3378 
Q 2772 3750 2511 3984 
Q 2250 4219 1831 4219 
Q 1534 4219 1204 4116 
Q 875 4013 500 3803 
L 500 4441 
Q 881 4594 1212 4672 
Q 1544 4750 1819 4750 
Q 2544 4750 2975 4387 
Q 3406 4025 3406 3419 
Q 3406 3131 3298 2873 
Q 3191 2616 2906 2266 
Q 2828 2175 2409 1742 
Q 1991 1309 1228 531 
z
" transform="scale(0.015625)"/>
       </defs>
       <use xlink:href="#DejaVuSans-2212"/>
       <use xlink:href="#DejaVuSans-32" x="83.789062"/>
      </g>
     </g>
    </g>
    <g id="xtick_4">
     <g id="line2d_7">
      <path d="M 330.273815 307.584 
L 330.273815 41.472 
" clip-path="url(#p0cc08b8426)" style="fill: none; stroke: #b0b0b0; stroke-width: 0.8; stroke-linecap: square"/>
     </g>
     <g id="line2d_8">
      <g>
       <use xlink:href="#m6763387c74" x="330.273815" y="307.584" style="stroke: #000000; stroke-width: 0.8"/>
      </g>
     </g>
     <g id="text_4">
      <!-- 0 -->
      <g transform="translate(325.820065 325.221812) scale(0.14 -0.14)">
       <defs>
        <path id="DejaVuSans-30" d="M 2034 4250 
Q 1547 4250 1301 3770 
Q 1056 3291 1056 2328 
Q 1056 1369 1301 889 
Q 1547 409 2034 409 
Q 2525 409 2770 889 
Q 3016 1369 3016 2328 
Q 3016 3291 2770 3770 
Q 2525 4250 2034 4250 
z
M 2034 4750 
Q 2819 4750 3233 4129 
Q 3647 3509 3647 2328 
Q 3647 1150 3233 529 
Q 2819 -91 2034 -91 
Q 1250 -91 836 529 
Q 422 1150 422 2328 
Q 422 3509 836 4129 
Q 1250 4750 2034 4750 
z
" transform="scale(0.015625)"/>
       </defs>
       <use xlink:href="#DejaVuSans-30"/>
      </g>
     </g>
    </g>
    <g id="text_5">
     <!-- $\Delta \Delta G_{AL}$ -->
     <g transform="translate(214.88 342.771187) scale(0.14 -0.14)">
      <defs>
       <path id="DejaVuSans-394" d="M 2188 4044 
L 906 525 
L 3472 525 
L 2188 4044 
z
M 50 0 
L 1831 4666 
L 2547 4666 
L 4325 0 
L 50 0 
z
" transform="scale(0.015625)"/>
       <path id="DejaVuSans-Oblique-47" d="M 3494 697 
L 3738 1919 
L 2700 1919 
L 2797 2438 
L 4453 2438 
L 4050 384 
Q 3634 156 3143 32 
Q 2653 -91 2156 -91 
Q 1278 -91 783 396 
Q 288 884 288 1753 
Q 288 2475 589 3126 
Q 891 3778 1422 4213 
Q 1756 4484 2153 4617 
Q 2550 4750 3034 4750 
Q 3472 4750 3873 4639 
Q 4275 4528 4641 4306 
L 4513 3634 
Q 4231 3928 3853 4083 
Q 3475 4238 3047 4238 
Q 2550 4238 2172 4048 
Q 1794 3859 1497 3463 
Q 1244 3125 1098 2667 
Q 953 2209 953 1734 
Q 953 1081 1287 751 
Q 1622 422 2284 422 
Q 2616 422 2925 492 
Q 3234 563 3494 697 
z
" transform="scale(0.015625)"/>
       <path id="DejaVuSans-Oblique-41" d="M 2356 4666 
L 3072 4666 
L 3938 0 
L 3278 0 
L 3084 1197 
L 984 1197 
L 325 0 
L -341 0 
L 2356 4666 
z
M 2584 4044 
L 1275 1722 
L 2988 1722 
L 2584 4044 
z
" transform="scale(0.015625)"/>
       <path id="DejaVuSans-Oblique-4c" d="M 1075 4666 
L 1709 4666 
L 909 525 
L 3181 525 
L 3078 0 
L 172 0 
L 1075 4666 
z
" transform="scale(0.015625)"/>
      </defs>
      <use xlink:href="#DejaVuSans-394" transform="translate(0 0.78125)"/>
      <use xlink:href="#DejaVuSans-394" transform="translate(68.408203 0.78125)"/>
      <use xlink:href="#DejaVuSans-Oblique-47" transform="translate(136.816406 0.78125)"/>
      <use xlink:href="#DejaVuSans-Oblique-41" transform="translate(214.306641 -15.625) scale(0.7)"/>
      <use xlink:href="#DejaVuSans-Oblique-4c" transform="translate(262.192383 -15.625) scale(0.7)"/>
     </g>
    </g>
   </g>
   <g id="matplotlib.axis_2">
    <g id="ytick_1">
     <g id="line2d_9">
      <path d="M 57.6 289.196117 
L 414.72 289.196117 
" clip-path="url(#p0cc08b8426)" style="fill: none; stroke: #b0b0b0; stroke-width: 0.8; stroke-linecap: square"/>
     </g>
     <g id="line2d_10">
      <defs>
       <path id="m06c2f9cd1c" d="M 0 0 
L -3.5 0 
" style="stroke: #000000; stroke-width: 0.8"/>
      </defs>
      <g>
       <use xlink:href="#m06c2f9cd1c" x="57.6" y="289.196117" style="stroke: #000000; stroke-width: 0.8"/>
      </g>
     </g>
     <g id="text_6">
      <!-- −40 -->
      <g transform="translate(21.053437 294.515024) scale(0.14 -0.14)">
       <use xlink:href="#DejaVuSans-2212"/>
       <use xlink:href="#DejaVuSans-34" x="83.789062"/>
       <use xlink:href="#DejaVuSans-30" x="147.412109"/>
      </g>
     </g>
    </g>
    <g id="ytick_2">
     <g id="line2d_11">
      <path d="M 57.6 254.836776 
L 414.72 254.836776 
" clip-path="url(#p0cc08b8426)" style="fill: none; stroke: #b0b0b0; stroke-width: 0.8; stroke-linecap: square"/>
     </g>
     <g id="line2d_12">
      <g>
       <use xlink:href="#m06c2f9cd1c" x="57.6" y="254.836776" style="stroke: #000000; stroke-width: 0.8"/>
      </g>
     </g>
     <g id="text_7">
      <!-- −35 -->
      <g transform="translate(21.053437 260.155682) scale(0.14 -0.14)">
       <defs>
        <path id="DejaVuSans-33" d="M 2597 2516 
Q 3050 2419 3304 2112 
Q 3559 1806 3559 1356 
Q 3559 666 3084 287 
Q 2609 -91 1734 -91 
Q 1441 -91 1130 -33 
Q 819 25 488 141 
L 488 750 
Q 750 597 1062 519 
Q 1375 441 1716 441 
Q 2309 441 2620 675 
Q 2931 909 2931 1356 
Q 2931 1769 2642 2001 
Q 2353 2234 1838 2234 
L 1294 2234 
L 1294 2753 
L 1863 2753 
Q 2328 2753 2575 2939 
Q 2822 3125 2822 3475 
Q 2822 3834 2567 4026 
Q 2313 4219 1838 4219 
Q 1578 4219 1281 4162 
Q 984 4106 628 3988 
L 628 4550 
Q 988 4650 1302 4700 
Q 1616 4750 1894 4750 
Q 2613 4750 3031 4423 
Q 3450 4097 3450 3541 
Q 3450 3153 3228 2886 
Q 3006 2619 2597 2516 
z
" transform="scale(0.015625)"/>
        <path id="DejaVuSans-35" d="M 691 4666 
L 3169 4666 
L 3169 4134 
L 1269 4134 
L 1269 2991 
Q 1406 3038 1543 3061 
Q 1681 3084 1819 3084 
Q 2600 3084 3056 2656 
Q 3513 2228 3513 1497 
Q 3513 744 3044 326 
Q 2575 -91 1722 -91 
Q 1428 -91 1123 -41 
Q 819 9 494 109 
L 494 744 
Q 775 591 1075 516 
Q 1375 441 1709 441 
Q 2250 441 2565 725 
Q 2881 1009 2881 1497 
Q 2881 1984 2565 2268 
Q 2250 2553 1709 2553 
Q 1456 2553 1204 2497 
Q 953 2441 691 2322 
L 691 4666 
z
" transform="scale(0.015625)"/>
       </defs>
       <use xlink:href="#DejaVuSans-2212"/>
       <use xlink:href="#DejaVuSans-33" x="83.789062"/>
       <use xlink:href="#DejaVuSans-35" x="147.412109"/>
      </g>
     </g>
    </g>
    <g id="ytick_3">
     <g id="line2d_13">
      <path d="M 57.6 220.477435 
L 414.72 220.477435 
" clip-path="url(#p0cc08b8426)" style="fill: none; stroke: #b0b0b0; stroke-width: 0.8; stroke-linecap: square"/>
     </g>
     <g id="line2d_14">
      <g>
       <use xlink:href="#m06c2f9cd1c" x="57.6" y="220.477435" style="stroke: #000000; stroke-width: 0.8"/>
      </g>
     </g>
     <g id="text_8">
      <!-- −30 -->
      <g transform="translate(21.053437 225.796341) scale(0.14 -0.14)">
       <use xlink:href="#DejaVuSans-2212"/>
       <use xlink:href="#DejaVuSans-33" x="83.789062"/>
       <use xlink:href="#DejaVuSans-30" x="147.412109"/>
      </g>
     </g>
    </g>
    <g id="ytick_4">
     <g id="line2d_15">
      <path d="M 57.6 186.118093 
L 414.72 186.118093 
" clip-path="url(#p0cc08b8426)" style="fill: none; stroke: #b0b0b0; stroke-width: 0.8; stroke-linecap: square"/>
     </g>
     <g id="line2d_16">
      <g>
       <use xlink:href="#m06c2f9cd1c" x="57.6" y="186.118093" style="stroke: #000000; stroke-width: 0.8"/>
      </g>
     </g>
     <g id="text_9">
      <!-- −25 -->
      <g transform="translate(21.053437 191.436999) scale(0.14 -0.14)">
       <use xlink:href="#DejaVuSans-2212"/>
       <use xlink:href="#DejaVuSans-32" x="83.789062"/>
       <use xlink:href="#DejaVuSans-35" x="147.412109"/>
      </g>
     </g>
    </g>
    <g id="ytick_5">
     <g id="line2d_17">
      <path d="M 57.6 151.758752 
L 414.72 151.758752 
" clip-path="url(#p0cc08b8426)" style="fill: none; stroke: #b0b0b0; stroke-width: 0.8; stroke-linecap: square"/>
     </g>
     <g id="line2d_18">
      <g>
       <use xlink:href="#m06c2f9cd1c" x="57.6" y="151.758752" style="stroke: #000000; stroke-width: 0.8"/>
      </g>
     </g>
     <g id="text_10">
      <!-- −20 -->
      <g transform="translate(21.053437 157.077658) scale(0.14 -0.14)">
       <use xlink:href="#DejaVuSans-2212"/>
       <use xlink:href="#DejaVuSans-32" x="83.789062"/>
       <use xlink:href="#DejaVuSans-30" x="147.412109"/>
      </g>
     </g>
    </g>
    <g id="ytick_6">
     <g id="line2d_19">
      <path d="M 57.6 117.39941 
L 414.72 117.39941 
" clip-path="url(#p0cc08b8426)" style="fill: none; stroke: #b0b0b0; stroke-width: 0.8; stroke-linecap: square"/>
     </g>
     <g id="line2d_20">
      <g>
       <use xlink:href="#m06c2f9cd1c" x="57.6" y="117.39941" style="stroke: #000000; stroke-width: 0.8"/>
      </g>
     </g>
     <g id="text_11">
      <!-- −15 -->
      <g transform="translate(21.053437 122.718316) scale(0.14 -0.14)">
       <defs>
        <path id="DejaVuSans-31" d="M 794 531 
L 1825 531 
L 1825 4091 
L 703 3866 
L 703 4441 
L 1819 4666 
L 2450 4666 
L 2450 531 
L 3481 531 
L 3481 0 
L 794 0 
L 794 531 
z
" transform="scale(0.015625)"/>
       </defs>
       <use xlink:href="#DejaVuSans-2212"/>
       <use xlink:href="#DejaVuSans-31" x="83.789062"/>
       <use xlink:href="#DejaVuSans-35" x="147.412109"/>
      </g>
     </g>
    </g>
    <g id="ytick_7">
     <g id="line2d_21">
      <path d="M 57.6 83.040069 
L 414.72 83.040069 
" clip-path="url(#p0cc08b8426)" style="fill: none; stroke: #b0b0b0; stroke-width: 0.8; stroke-linecap: square"/>
     </g>
     <g id="line2d_22">
      <g>
       <use xlink:href="#m06c2f9cd1c" x="57.6" y="83.040069" style="stroke: #000000; stroke-width: 0.8"/>
      </g>
     </g>
     <g id="text_12">
      <!-- −10 -->
      <g transform="translate(21.053437 88.358975) scale(0.14 -0.14)">
       <use xlink:href="#DejaVuSans-2212"/>
       <use xlink:href="#DejaVuSans-31" x="83.789062"/>
       <use xlink:href="#DejaVuSans-30" x="147.412109"/>
      </g>
     </g>
    </g>
    <g id="ytick_8">
     <g id="line2d_23">
      <path d="M 57.6 48.680727 
L 414.72 48.680727 
" clip-path="url(#p0cc08b8426)" style="fill: none; stroke: #b0b0b0; stroke-width: 0.8; stroke-linecap: square"/>
     </g>
     <g id="line2d_24">
      <g>
       <use xlink:href="#m06c2f9cd1c" x="57.6" y="48.680727" style="stroke: #000000; stroke-width: 0.8"/>
      </g>
     </g>
     <g id="text_13">
      <!-- −5 -->
      <g transform="translate(29.960938 53.999634) scale(0.14 -0.14)">
       <use xlink:href="#DejaVuSans-2212"/>
       <use xlink:href="#DejaVuSans-35" x="83.789062"/>
      </g>
     </g>
    </g>
    <g id="text_14">
     <!-- $\Delta \Delta G_{BL}$ -->
     <g transform="translate(14.141875 195.878) rotate(-90) scale(0.14 -0.14)">
      <defs>
       <path id="DejaVuSans-Oblique-42" d="M 1081 4666 
L 2694 4666 
Q 3350 4666 3675 4422 
Q 4000 4178 4000 3688 
Q 4000 3238 3720 2911 
Q 3441 2584 2988 2516 
Q 3375 2428 3569 2181 
Q 3763 1934 3763 1522 
Q 3763 819 3242 409 
Q 2722 0 1819 0 
L 172 0 
L 1081 4666 
z
M 1234 2228 
L 903 519 
L 1919 519 
Q 2491 519 2800 781 
Q 3109 1044 3109 1522 
Q 3109 1891 2904 2059 
Q 2700 2228 2247 2228 
L 1234 2228 
z
M 1606 4147 
L 1331 2741 
L 2272 2741 
Q 2775 2741 3058 2959 
Q 3341 3178 3341 3566 
Q 3341 3869 3150 4008 
Q 2959 4147 2541 4147 
L 1606 4147 
z
" transform="scale(0.015625)"/>
      </defs>
      <use xlink:href="#DejaVuSans-394" transform="translate(0 0.78125)"/>
      <use xlink:href="#DejaVuSans-394" transform="translate(68.408203 0.78125)"/>
      <use xlink:href="#DejaVuSans-Oblique-47" transform="translate(136.816406 0.78125)"/>
      <use xlink:href="#DejaVuSans-Oblique-42" transform="translate(214.306641 -15.625) scale(0.7)"/>
      <use xlink:href="#DejaVuSans-Oblique-4c" transform="translate(262.329102 -15.625) scale(0.7)"/>
     </g>
    </g>
   </g>
   <g id="LineCollection_1">
    <path d="M 249.171038 96.475258 
L 318.879281 96.475258 
" clip-path="url(#p0cc08b8426)" style="fill: none; stroke: #414487; stroke-width: 1.5"/>
   </g>
   <g id="LineCollection_2">
    <path d="M 284.025159 138.708387 
L 284.025159 54.24213 
" clip-path="url(#p0cc08b8426)" style="fill: none; stroke: #414487; stroke-width: 1.5"/>
   </g>
   <g id="LineCollection_3">
    <path d="M 262.607022 121.490921 
L 398.487273 121.490921 
" clip-path="url(#p0cc08b8426)" style="fill: none; stroke: #414487; stroke-width: 1.5"/>
   </g>
   <g id="LineCollection_4">
    <path d="M 330.547147 144.346754 
L 330.547147 98.635087 
" clip-path="url(#p0cc08b8426)" style="fill: none; stroke: #414487; stroke-width: 1.5"/>
   </g>
   <g id="LineCollection_5">
    <path d="M 226.744988 252.048172 
L 325.546023 252.048172 
" clip-path="url(#p0cc08b8426)" style="fill: none; stroke: #9bd93c; stroke-width: 1.5"/>
   </g>
   <g id="LineCollection_6">
    <path d="M 276.145506 295.488 
L 276.145506 208.608344 
" clip-path="url(#p0cc08b8426)" style="fill: none; stroke: #9bd93c; stroke-width: 1.5"/>
   </g>
   <g id="LineCollection_7">
    <path d="M 73.832727 93.532037 
L 208.611108 93.532037 
" clip-path="url(#p0cc08b8426)" style="fill: none; stroke: #9bd93c; stroke-width: 1.5"/>
   </g>
   <g id="LineCollection_8">
    <path d="M 141.221917 133.496074 
L 141.221917 53.568 
" clip-path="url(#p0cc08b8426)" style="fill: none; stroke: #9bd93c; stroke-width: 1.5"/>
   </g>
   <g id="line2d_25">
    <path d="M 284.025159 96.475258 
" clip-path="url(#p0cc08b8426)" style="fill: none; stroke: #414487; stroke-width: 1.5; stroke-linecap: square"/>
    <defs>
     <path id="m62482cda67" d="M -3 3 
L 3 3 
L 3 -3 
L -3 -3 
z
" style="stroke: #414487; stroke-linejoin: miter"/>
    </defs>
    <g clip-path="url(#p0cc08b8426)">
     <use xlink:href="#m62482cda67" x="284.025159" y="96.475258" style="fill: #414487; stroke: #414487; stroke-linejoin: miter"/>
    </g>
   </g>
   <g id="line2d_26">
    <path d="M 330.547147 121.490921 
" clip-path="url(#p0cc08b8426)" style="fill: none; stroke: #414487; stroke-width: 1.5; stroke-linecap: square"/>
    <g clip-path="url(#p0cc08b8426)">
     <use xlink:href="#m62482cda67" x="330.547147" y="121.490921" style="fill: #414487; stroke: #414487; stroke-linejoin: miter"/>
    </g>
   </g>
   <g id="line2d_27">
    <path d="M 276.145506 252.048172 
" clip-path="url(#p0cc08b8426)" style="fill: none; stroke: #9bd93c; stroke-width: 1.5; stroke-linecap: square"/>
    <defs>
     <path id="m543b503e52" d="M -3 3 
L 3 3 
L 3 -3 
L -3 -3 
z
" style="stroke: #9bd93c; stroke-linejoin: miter"/>
    </defs>
    <g clip-path="url(#p0cc08b8426)">
     <use xlink:href="#m543b503e52" x="276.145506" y="252.048172" style="fill: #9bd93c; stroke: #9bd93c; stroke-linejoin: miter"/>
    </g>
   </g>
   <g id="line2d_28">
    <path d="M 141.221917 93.532037 
" clip-path="url(#p0cc08b8426)" style="fill: none; stroke: #9bd93c; stroke-width: 1.5; stroke-linecap: square"/>
    <g clip-path="url(#p0cc08b8426)">
     <use xlink:href="#m543b503e52" x="141.221917" y="93.532037" style="fill: #9bd93c; stroke: #9bd93c; stroke-linejoin: miter"/>
    </g>
   </g>
   <g id="patch_3">
    <path d="M 57.6 307.584 
L 57.6 41.472 
" style="fill: none; stroke: #000000; stroke-width: 0.8; stroke-linejoin: miter; stroke-linecap: square"/>
   </g>
   <g id="patch_4">
    <path d="M 414.72 307.584 
L 414.72 41.472 
" style="fill: none; stroke: #000000; stroke-width: 0.8; stroke-linejoin: miter; stroke-linecap: square"/>
   </g>
   <g id="patch_5">
    <path d="M 57.6 307.584 
L 414.72 307.584 
" style="fill: none; stroke: #000000; stroke-width: 0.8; stroke-linejoin: miter; stroke-linecap: square"/>
   </g>
   <g id="patch_6">
    <path d="M 57.6 41.472 
L 414.72 41.472 
" style="fill: none; stroke: #000000; stroke-width: 0.8; stroke-linejoin: miter; stroke-linecap: square"/>
   </g>
   <g id="legend_1">
    <g id="patch_7">
     <path d="M 67.4 300.584 
L 163.7375 300.584 
Q 166.5375 300.584 166.5375 297.784 
L 166.5375 215.429 
Q 166.5375 212.629 163.7375 212.629 
L 67.4 212.629 
Q 64.6 212.629 64.6 215.429 
L 64.6 297.784 
Q 64.6 300.584 67.4 300.584 
z
" style="fill: #ffffff; opacity: 0.8; stroke: #cccccc; stroke-linejoin: miter"/>
    </g>
    <g id="LineCollection_9">
     <path d="M 77.2 223.966812 
L 91.2 223.966812 
" style="fill: none; stroke: #414487; stroke-width: 1.5"/>
    </g>
    <g id="LineCollection_10">
     <path d="M 84.2 230.966812 
L 84.2 216.966812 
" style="fill: none; stroke: #414487; stroke-width: 1.5"/>
    </g>
    <g id="line2d_29">
     <path d="M 70.2 223.966812 
L 98.2 223.966812 
" style="fill: none; stroke: #414487; stroke-width: 1.5; stroke-linecap: square"/>
    </g>
    <g id="line2d_30">
     <g>
      <use xlink:href="#m62482cda67" x="84.2" y="223.966812" style="fill: #414487; stroke: #414487; stroke-linejoin: miter"/>
     </g>
    </g>
    <g id="text_15">
     <!-- 0156_1 -->
     <g transform="translate(109.4 228.866812) scale(0.14 -0.14)">
      <defs>
       <path id="DejaVuSans-5f" d="M 3263 -1063 
L 3263 -1509 
L -63 -1509 
L -63 -1063 
L 3263 -1063 
z
" transform="scale(0.015625)"/>
      </defs>
      <use xlink:href="#DejaVuSans-30"/>
      <use xlink:href="#DejaVuSans-31" x="63.623047"/>
      <use xlink:href="#DejaVuSans-35" x="127.246094"/>
      <use xlink:href="#DejaVuSans-36" x="190.869141"/>
      <use xlink:href="#DejaVuSans-5f" x="254.492188"/>
      <use xlink:href="#DejaVuSans-31" x="304.492188"/>
     </g>
    </g>
    <g id="LineCollection_11">
     <path d="M 77.2 244.905562 
L 91.2 244.905562 
" style="fill: none; stroke: #414487; stroke-width: 1.5"/>
    </g>
    <g id="LineCollection_12">
     <path d="M 84.2 251.905562 
L 84.2 237.905562 
" style="fill: none; stroke: #414487; stroke-width: 1.5"/>
    </g>
    <g id="line2d_31">
     <path d="M 70.2 244.905562 
L 98.2 244.905562 
" style="fill: none; stroke: #414487; stroke-width: 1.5; stroke-linecap: square"/>
    </g>
    <g id="line2d_32">
     <g>
      <use xlink:href="#m62482cda67" x="84.2" y="244.905562" style="fill: #414487; stroke: #414487; stroke-linejoin: miter"/>
     </g>
    </g>
    <g id="text_16">
     <!-- 0156_2 -->
     <g transform="translate(109.4 249.805562) scale(0.14 -0.14)">
      <use xlink:href="#DejaVuSans-30"/>
      <use xlink:href="#DejaVuSans-31" x="63.623047"/>
      <use xlink:href="#DejaVuSans-35" x="127.246094"/>
      <use xlink:href="#DejaVuSans-36" x="190.869141"/>
      <use xlink:href="#DejaVuSans-5f" x="254.492188"/>
      <use xlink:href="#DejaVuSans-32" x="304.492188"/>
     </g>
    </g>
    <g id="LineCollection_13">
     <path d="M 77.2 265.844313 
L 91.2 265.844313 
" style="fill: none; stroke: #9bd93c; stroke-width: 1.5"/>
    </g>
    <g id="LineCollection_14">
     <path d="M 84.2 272.844313 
L 84.2 258.844313 
" style="fill: none; stroke: #9bd93c; stroke-width: 1.5"/>
    </g>
    <g id="line2d_33">
     <path d="M 70.2 265.844313 
L 98.2 265.844313 
" style="fill: none; stroke: #9bd93c; stroke-width: 1.5; stroke-linecap: square"/>
    </g>
    <g id="line2d_34">
     <g>
      <use xlink:href="#m543b503e52" x="84.2" y="265.844313" style="fill: #9bd93c; stroke: #9bd93c; stroke-linejoin: miter"/>
     </g>
    </g>
    <g id="text_17">
     <!-- 1258_1 -->
     <g transform="translate(109.4 270.744312) scale(0.14 -0.14)">
      <defs>
       <path id="DejaVuSans-38" d="M 2034 2216 
Q 1584 2216 1326 1975 
Q 1069 1734 1069 1313 
Q 1069 891 1326 650 
Q 1584 409 2034 409 
Q 2484 409 2743 651 
Q 3003 894 3003 1313 
Q 3003 1734 2745 1975 
Q 2488 2216 2034 2216 
z
M 1403 2484 
Q 997 2584 770 2862 
Q 544 3141 544 3541 
Q 544 4100 942 4425 
Q 1341 4750 2034 4750 
Q 2731 4750 3128 4425 
Q 3525 4100 3525 3541 
Q 3525 3141 3298 2862 
Q 3072 2584 2669 2484 
Q 3125 2378 3379 2068 
Q 3634 1759 3634 1313 
Q 3634 634 3220 271 
Q 2806 -91 2034 -91 
Q 1263 -91 848 271 
Q 434 634 434 1313 
Q 434 1759 690 2068 
Q 947 2378 1403 2484 
z
M 1172 3481 
Q 1172 3119 1398 2916 
Q 1625 2713 2034 2713 
Q 2441 2713 2670 2916 
Q 2900 3119 2900 3481 
Q 2900 3844 2670 4047 
Q 2441 4250 2034 4250 
Q 1625 4250 1398 4047 
Q 1172 3844 1172 3481 
z
" transform="scale(0.015625)"/>
      </defs>
      <use xlink:href="#DejaVuSans-31"/>
      <use xlink:href="#DejaVuSans-32" x="63.623047"/>
      <use xlink:href="#DejaVuSans-35" x="127.246094"/>
      <use xlink:href="#DejaVuSans-38" x="190.869141"/>
      <use xlink:href="#DejaVuSans-5f" x="254.492188"/>
      <use xlink:href="#DejaVuSans-31" x="304.492188"/>
     </g>
    </g>
    <g id="LineCollection_15">
     <path d="M 77.2 286.783063 
L 91.2 286.783063 
" style="fill: none; stroke: #9bd93c; stroke-width: 1.5"/>
    </g>
    <g id="LineCollection_16">
     <path d="M 84.2 293.783063 
L 84.2 279.783063 
" style="fill: none; stroke: #9bd93c; stroke-width: 1.5"/>
    </g>
    <g id="line2d_35">
     <path d="M 70.2 286.783063 
L 98.2 286.783063 
" style="fill: none; stroke: #9bd93c; stroke-width: 1.5; stroke-linecap: square"/>
    </g>
    <g id="line2d_36">
     <g>
      <use xlink:href="#m543b503e52" x="84.2" y="286.783063" style="fill: #9bd93c; stroke: #9bd93c; stroke-linejoin: miter"/>
     </g>
    </g>
    <g id="text_18">
     <!-- 1258_2 -->
     <g transform="translate(109.4 291.683063) scale(0.14 -0.14)">
      <use xlink:href="#DejaVuSans-31"/>
      <use xlink:href="#DejaVuSans-32" x="63.623047"/>
      <use xlink:href="#DejaVuSans-35" x="127.246094"/>
      <use xlink:href="#DejaVuSans-38" x="190.869141"/>
      <use xlink:href="#DejaVuSans-5f" x="254.492188"/>
      <use xlink:href="#DejaVuSans-32" x="304.492188"/>
     </g>
    </g>
   </g>
  </g>
 </g>
 <defs>
  <clipPath id="p0cc08b8426">
   <rect x="57.6" y="41.472" width="357.12" height="266.112"/>
  </clipPath>
 </defs>
</svg>
